# xmcd
#
# Track frame offsets:
#	150
#	11735
#	23425
#	35375
#	46833
#	57968
#	69320
#	83275
#	95033
#	105433
#	116778
#	127940
#	138383
#	150990
#
# Disc length: 2159 seconds
#
# Revision: 1
# Processed by: cddbd v1.4PL0 Copyright (c) Steve Scherf et al.
# Submitted via: audiograbber 1.80
#
DISCID=9f086d0e
DTITLE=Patsy Cline - The Country Soul Of Patsy Cline
DYEAR=1900
DGENRE=
TTITLE0=Walkin After Midnight
TTITLE1=I'ved Loved and Lost Again
TTITLE2=Today, Tomorrow and Forever
TTITLE3=Lonely Street
TTITLE4=Stop the World (And Let Me Off)
TTITLE5=Just Our Of Reach (Of My Two Arms)
TTITLE6=A Church, A Courtroom, And Then Goodbye
TTITLE7=A Poor Man's Roses (Or A Rich Man's Gold)
TTITLE8=Too Many Secrets
TTITLE9=Hungry For Love
TTITLE10=A Stranger In My Arms
TTITLE11=Lovesick Blues
TTITLE12=Fingerprints
TTITLE13=I can't Forget
EXTD=
EXTT0=
EXTT1=
EXTT2=
EXTT3=
EXTT4=
EXTT5=
EXTT6=
EXTT7=
EXTT8=
EXTT9=
EXTT10=
EXTT11=
EXTT12=
EXTT13=
PLAYORDER=
